<svg id="Layer_1" data-name="Layer 1" xmlns="http://www.w3.org/2000/svg" viewBox="0 0 1700.79 377.95"><defs><style>.cls-1,.cls-10{fill:none;}.cls-2{font-size:98px;fill:#004d74;font-family:Montserrat-Bold, Montserrat;font-weight:700;}.cls-3{letter-spacing:-0.01em;}.cls-4{letter-spacing:-0.01em;}.cls-5{letter-spacing:-0.03em;}.cls-6{font-family:Montserrat-SemiBold, Montserrat;font-weight:600;}.cls-7,.cls-8,.cls-9{font-family:Montserrat-Light, Montserrat;font-weight:300;}.cls-7{letter-spacing:-0.11em;}.cls-8{letter-spacing:-0.1em;}.cls-9{letter-spacing:-0.1em;}.cls-10{stroke:#004d74;stroke-miterlimit:10;stroke-width:18px;}</style></defs><line class="cls-1" x1="266" y1="99.33" x2="186.41" y2="288.21"/><line class="cls-1" x1="299.33" y1="91.33" x2="378" y2="172.67"/><text class="cls-2" transform="translate(423.31 223.95)">DE<tspan class="cls-3" x="146.7" y="0">P</tspan><tspan class="cls-4" x="217.46" y="0">L</tspan><tspan class="cls-5" x="275.48" y="0">O</tspan><tspan x="355.25" y="0">Y</tspan><tspan class="cls-6" x="421.49" y="0"> </tspan><tspan class="cls-7" x="448.54" y="0">W</tspan><tspan class="cls-8" x="544.97" y="0">ITH ALE</tspan><tspan class="cls-7" x="858.08" y="0">J</tspan><tspan class="cls-9" x="895.02" y="0">ANDRO</tspan></text><polygon class="cls-10" points="205.66 205.98 245.71 275.38 205.63 344.76 125.5 344.75 85.45 275.35 125.53 205.97 205.66 205.98"/><polygon class="cls-10" points="207.83 30.43 247.88 99.83 207.81 169.22 127.68 169.2 87.63 99.8 127.7 30.42 207.83 30.43"/><polygon class="cls-10" points="360.64 120.62 400.69 190.02 360.62 259.4 280.49 259.39 240.44 189.99 280.51 120.6 360.64 120.62"/></svg>