<svg id="Layer_1" data-name="Layer 1" xmlns="http://www.w3.org/2000/svg" viewBox="0 0 1588.27 332.35"><defs><style>.cls-1,.cls-10{fill:none;}.cls-2{font-size:98px;fill:#004d74;font-family:Montserrat-Bold, Montserrat;font-weight:700;}.cls-3{letter-spacing:-0.01em;}.cls-4{letter-spacing:-0.01em;}.cls-5{letter-spacing:-0.03em;}.cls-6{font-family:Montserrat-SemiBold, Montserrat;font-weight:600;}.cls-7,.cls-8,.cls-9{font-family:Montserrat-Light, Montserrat;font-weight:300;}.cls-7{letter-spacing:-0.11em;}.cls-8{letter-spacing:-0.1em;}.cls-9{letter-spacing:-0.1em;}.cls-10{stroke:#004d74;stroke-miterlimit:10;stroke-width:18px;}</style></defs><line class="cls-1" x1="190.94" y1="77.92" x2="111.35" y2="266.79"/><line class="cls-1" x1="224.27" y1="69.92" x2="302.94" y2="151.25"/><text class="cls-2" transform="translate(348.25 202.53)">DE<tspan class="cls-3" x="146.7" y="0">P</tspan><tspan class="cls-4" x="217.46" y="0">L</tspan><tspan class="cls-5" x="275.48" y="0">O</tspan><tspan x="355.25" y="0">Y</tspan><tspan class="cls-6" x="421.49" y="0"> </tspan><tspan class="cls-7" x="448.54" y="0">W</tspan><tspan class="cls-8" x="544.97" y="0">ITH ALE</tspan><tspan class="cls-7" x="858.08" y="0">J</tspan><tspan class="cls-9" x="895.02" y="0">ANDRO</tspan></text><polygon class="cls-10" points="130.59 184.56 170.65 253.96 130.57 323.35 50.44 323.33 10.39 253.94 50.47 184.55 130.59 184.56"/><polygon class="cls-10" points="132.77 9.02 172.82 78.41 132.75 147.8 52.62 147.78 12.57 78.39 52.64 9 132.77 9.02"/><polygon class="cls-10" points="285.58 99.2 325.63 168.6 285.56 237.99 205.43 237.97 165.38 168.57 205.46 99.19 285.58 99.2"/></svg>